<?xml version="1.0" standalone="yes"?>
<svg xmlns="http://www.w3.org/2000/svg" width="319" height="320">
<path style="fill:#010101; stroke:none;" d="M0 0L0 15L1 15C2.06823 6.66281 7.62784 1.4353 16 1L0 0z"/>
<path style="fill:#fcfdfd; stroke:none;" d="M6 0L7 1L6 0M16 0L17 1L16 0z"/>
<path style="fill:#010101; stroke:none;" d="M17 0L17 1L299 1L273 0L216 0L17 0z"/>
<path style="fill:#fcfdfd; stroke:none;" d="M299.667 0.333344L300.333 0.666656L299.667 0.333344z"/>
<path style="fill:#010101; stroke:none;" d="M301 0L301 1L306 1L301 0z"/>
<path style="fill:#fcfdfd; stroke:none;" d="M306 0L307 1L306 0z"/>
<path style="fill:#010101; stroke:none;" d="M307 0L307 1L312 3C311.346 -0.0539551 309.993 0.0642395 307 0z"/>
<path style="fill:#fcfdfd; stroke:none;" d="M312 0L316 7L314 0L312 0z"/>
<path style="fill:#010101; stroke:none;" d="M314 0L318 13L319 13L317 6L317 5L319 0L314 0z"/>
<path style="fill:#fcfdfd; stroke:none;" d="M315 0L316 1L315 0M7 1L8 2L7 1M10 1L11 2L10 1z"/>
<path style="fill:#68cacb; stroke:none;" d="M11 1L12 2L11 1z"/>
<path style="fill:#65969f; stroke:none;" d="M12 1L12 2C31.1538 7.66153 57.9871 3 78 3L219 3L277 3C286.489 3 297.877 4.6965 307 2L307 1C295.099 3.83331 281.201 2 269 2L197 2L73 2C53.7774 2 30.7073 5.45389 12 1z"/>
<path style="fill:#525669; stroke:none;" d="M13 1L13 2L306 2L279 1L220 1L13 1z"/>
<path style="fill:#68cacb; stroke:none;" d="M307 1L308 2L307 1z"/>
<path style="fill:#fcfdfd; stroke:none;" d="M308 1L309 2L308 1M8 2L9 3L8 2z"/>
<path style="fill:#65969f; stroke:none;" d="M9 2L11 4L9 2z"/>
<path style="fill:#525669; stroke:none;" d="M10 2L10 3L13 3L10 2M306 2L306 3C321.376 8.23059 317 29.2143 317 42L317 159L284 159L284 166L285 166L285 160L317 160L317 269C317 280.39 321.065 301.598 313.581 310.956C308.308 317.55 300.613 317 293 317L246 317L68 317L26 317C18.8549 317 11.5441 317.618 6.22454 311.892C-2.02007 303.017 2 282.283 2 271L2 160L245 160C248.753 185.411 271.595 200.496 296 201L285 167L284 167C284.034 179.213 289.423 189.007 294 200C279.692 198.182 265.941 193.729 256.669 181.999C252.854 177.173 248.389 160.908 242.867 159.318C235.899 157.311 226.238 159 219 159L168 159L2 159L2 45C2 31.7798 -2.0977 12.7319 10 4L10 3C1.6049 5.9227 1.00301 14.2112 1 22L1 72L1 249L1 293C1 299.571 -0.138718 307.472 4.41898 312.892C9.75241 319.235 18.5988 318 26 318L77 318L236 318L284 318C291.491 318 300.791 319.46 308 317.196C315.467 314.851 317.908 308.176 317.996 301C318.176 286.338 318 271.663 318 257L318 69C318 51.5111 319.336 33.4268 317.907 16C317.299 8.59204 313.371 3.336 306 2z"/>
<path style="fill:#65969f; stroke:none;" d="M309 2L310 3L309 2z"/>
<path style="fill:#fcfdfd; stroke:none;" d="M310 2L311 3L310 2M6 3L7 4L6 3z"/>
<path style="fill:#65969f; stroke:none;" d="M7 3L8 4L7 3z"/>
<path style="fill:#68cacb; stroke:none;" d="M3 158L246 159C249.441 182.303 269.98 198.525 293 199C290.466 190.204 276.106 168.425 284.742 159.603C289.576 154.665 309.302 158 316 158L316 48C316 37.6445 320.135 15.613 313.196 7.32947C308.473 1.69135 300.559 3 294 3L246 3L67 3L24 3C17.6674 3 10.3523 1.90015 5.80401 7.32947C-1.13532 15.613 3 37.6446 3 48L3 158z"/>
<path style="fill:#65969f; stroke:none;" d="M308 3L309 4L308 3M311 3L312 4L311 3M8 4L9 5L8 4M310 4L311 5L310 4z"/>
<path style="fill:#fcfdfd; stroke:none;" d="M4 5L5 6L4 5z"/>
<path style="fill:#65969f; stroke:none;" d="M7 5L8 6L7 5M311 5L312 6L311 5z"/>
<path style="fill:#fcfdfd; stroke:none;" d="M317.667 5.33334L318.333 5.66666L317.667 5.33334M3 6L4 7L3 6z"/>
<path style="fill:#65969f; stroke:none;" d="M3 7L4 8L3 7M5 7L6 8L5 7M313 7L314 8L313 7M315 7L316 8L315 7M4 8L5 9L4 8M314 8L315 9L314 8z"/>
<path style="fill:#fcfdfd; stroke:none;" d="M316 8L317 9L316 8z"/>
<path style="fill:#65969f; stroke:none;" d="M316 9L317 10L316 9z"/>
<path style="fill:#fcfdfd; stroke:none;" d="M1 10L2 11L1 10z"/>
<path style="fill:#65969f; stroke:none;" d="M3 10L4 11L3 10M315 10L316 11L315 10z"/>
<path style="fill:#fcfdfd; stroke:none;" d="M317 10L318 11L317 10z"/>
<path style="fill:#68cacb; stroke:none;" d="M1 11L2 12L1 11M317 11L318 12L317 11z"/>
<path style="fill:#65969f; stroke:none;" d="M1 12L2 13L1 12M317 12L318 13L317 12M2 13L2 159L59 159L59 158L3 158L3 57C3 44.5323 6.80708 24.4558 2 13M316 13L316 158L284 158L284 159L317 159L317 57C317 44.5323 320.807 24.4559 316 13z"/>
<path style="fill:#fcfdfd; stroke:none;" d="M318.333 13.6667L318.667 14.3333L318.333 13.6667M0 15L1 16L0 15z"/>
<path style="fill:#010101; stroke:none;" d="M318 15L318 158L319 158L319 58C319 45.7942 322.707 26.2179 318 15M0 16L0 153L1 153L1 57C1 45.318 4.50749 26.7419 0 16z"/>
<path style="fill:#fcfdfd; stroke:none;" d="M15 95C15.2906 129.64 75.4266 134.329 81.3843 101C85.3761 78.6685 63.354 74.5344 47 69.9884C41.0895 68.3455 29.1995 64.4305 34.1049 56.0941C43.1858 40.6622 56.9714 57.1457 65.1844 61.3472C69.5868 63.5994 74.3682 62.5848 79 62C77.9794 54.4269 75.3823 46.7462 68.9097 42.1049C53.5122 31.0639 18.9788 34.6164 16.1852 57C13.2076 80.8575 33.7487 82.5476 51 88.3557C56.6115 90.245 68.1533 95.2869 63.2531 102.956C57.6854 111.67 42.7872 110.104 36.1088 103.786C33.7358 101.541 32.6547 97 29.6975 95.6034C25.8006 93.7629 19.2438 95 15 95M278 39L278 97C278 103.378 276.064 113.596 281.394 118.347C286.678 123.056 297.446 121 304 121L304 109C289.387 108.199 295 79.8077 295 69C301.928 68.4773 303.923 64.498 304 58L295 58C295 44.1072 292.406 39 278 39M85 121L102 121L102 86C102.002 80.1472 102.047 74.2496 108.015 71.179C114.417 67.8855 122.069 72.3458 123.606 79.0008C126.556 91.7748 124 107.888 124 121L141 121L141 100C141 93.0106 139.065 82.5437 141.858 76.0432C145.151 68.3785 156.668 68.3867 160.91 75.1049C165.863 82.9476 162.999 98.0504 163 107C163 111.631 162.274 117.352 167.059 119.972C170.633 121.93 176.057 121 180 121C180 105.548 183.533 82.0619 176.442 68.0008C169.608 54.4485 143.46 51.5208 133 62C120.205 52.9702 93.8219 52.9642 87.1188 70.0008C81.3708 84.6101 85 105.49 85 121M184 74C188.475 74 193.625 74.703 198 73.6867C202.285 72.6912 205.366 69.37 210 69.348C212.837 69.3345 217.563 70.264 218.824 73.2238C221.602 79.7468 208.629 81.1425 205 81.7531C189.441 84.3713 174.391 96.9494 185.228 113.907C193.16 126.32 219.02 124.401 228.906 115.66C238.889 106.833 236.001 90.8999 236 79C236 73.4038 236.312 67.7343 232.442 63.1883C220.241 48.8568 186.926 54.5643 184 74M238 121L255 121C255 102.398 248.693 75.0866 274 74L274 57C266.411 58.4088 258.858 58.0518 252 62.2137C233.843 73.2332 238 102.624 238 121z"/>
<path style="fill:#68cacb; stroke:none;" d="M221 90C217.533 90.3023 214.358 91.2298 211 92.1157C208.356 92.8134 205.49 93.2926 203.044 94.5687C188.406 102.207 212.5 118.662 219.437 100.985C220.821 97.4572 220.969 93.7342 221 90z"/>
<path style="fill:#fcfdfd; stroke:none;" d="M0 153L1 154L0 153z"/>
<path style="fill:#010101; stroke:none;" d="M0 154L0 158L1 158L0 154z"/>
<path style="fill:#fcfdfd; stroke:none;" d="M0 158L1 159L0 158z"/>
<path style="fill:#65969f; stroke:none;" d="M60 158L61 159L60 158z"/>
<path style="fill:#fcfdfd; stroke:none;" d="M318 158L319 159L318 158z"/>
<path style="fill:#010101; stroke:none;" d="M0 159L0 307L1 307L1 203C1 190.532 4.80708 170.456 0 159z"/>
<path style="fill:#65969f; stroke:none;" d="M245 159L246 160L245 159z"/>
<path style="fill:#010101; stroke:none;" d="M318 159L318 304L319 304L319 203C319 190.532 322.807 170.456 318 159z"/>
<path style="fill:#65969f; stroke:none;" d="M2 160L3 161L2 160z"/>
<path style="fill:#fcfdfd; stroke:none;" d="M3 160L3 271C3 281.325 -1.14433 303.447 5.65278 311.786C9.8807 316.974 17.0449 316 23 316L66 316L246 316L294 316C300.402 316 308.776 317.394 313.347 311.786C320.144 303.447 316 281.325 316 271L316 160C309.364 160 291.864 156.861 286.603 161.028C283.885 163.181 284.982 169.074 285.439 172C287.069 182.438 291.529 192.061 297 201C281.014 200.998 265.817 195.736 255.468 183C251.439 178.043 247.08 161.226 240.892 160.148C216.832 155.958 188.459 160 164 160L3 160z"/>
<path style="fill:#65969f; stroke:none;" d="M244 160L245 161L244 160M283 160L283 173L284 173L283 160M285 160L286 161L285 160M316 160L317 161L316 160z"/>
<path style="fill:#68cacb; stroke:none;" d="M2 161L2 304L3 304L3 204C3 191.794 6.70724 172.218 2 161M244 161L245 162L244 161M316 161L316 304L317 304L317 204C317 191.794 320.707 172.218 316 161z"/>
<path style="fill:#65969f; stroke:none;" d="M246 162L247 163L246 162M245 163L246 164L245 163z"/>
<path style="fill:#68cacb; stroke:none;" d="M245 164L246 165L245 164z"/>
<path style="fill:#65969f; stroke:none;" d="M247 165L248 166L247 165M246 166L247 167L246 166z"/>
<path style="fill:#68cacb; stroke:none;" d="M246 167L247 168L246 167z"/>
<path style="fill:#65969f; stroke:none;" d="M248 168L249 169L248 168M247 169L248 170L247 169M249 170L250 171L249 170M248 171L249 172L248 171M250 172L251 173L250 172z"/>
<path style="fill:#68cacb; stroke:none;" d="M285.333 172.667L285.667 173.333L285.333 172.667z"/>
<path style="fill:#65969f; stroke:none;" d="M249 173L250 174L249 173M251 174L252 175L251 174M285 174L286 175L285 174M250 175L251 176L250 175M284 175L284 178L285 178L284 175M252 176L253 177L252 176M251 177L252 178L251 177z"/>
<path style="fill:#68cacb; stroke:none;" d="M286 177L287 178L286 177z"/>
<path style="fill:#65969f; stroke:none;" d="M286 178L287 179L286 178z"/>
<path style="fill:#68cacb; stroke:none;" d="M252 179L253 180L252 179z"/>
<path style="fill:#65969f; stroke:none;" d="M254 179L255 180L254 179M285.333 179.667L285.667 180.333L285.333 179.667M253 180L254 181L253 180M287 181L288 182L287 181M286.333 182.667L286.667 183.333L286.333 182.667z"/>
<path style="fill:#68cacb; stroke:none;" d="M255 183L256 184L255 183z"/>
<path style="fill:#65969f; stroke:none;" d="M257 183L258 184L257 183z"/>
<path style="fill:#68cacb; stroke:none;" d="M288 183L289 184L288 183z"/>
<path style="fill:#65969f; stroke:none;" d="M256 184L257 185L256 184M258 184L259 185L258 184M288 184L289 185L288 184M257 185L258 186L257 185M259 185L260 186L259 185M287 185L288 186L287 185M258 186L259 187L258 186M260 186L261 187L260 186M289 186L290 187L289 186M259 187L260 188L259 187M261 187L262 188L261 187M288.333 187.667L288.667 188.333L288.333 187.667M260 188L261 189L260 188M262 188L263 189L262 188z"/>
<path style="fill:#68cacb; stroke:none;" d="M290 188L291 189L290 188z"/>
<path style="fill:#65969f; stroke:none;" d="M261 189L262 190L261 189z"/>
<path style="fill:#68cacb; stroke:none;" d="M262 190L263 191L262 190z"/>
<path style="fill:#65969f; stroke:none;" d="M265 190L266 191L265 190M289 190L290 191L289 190M266 191L267 192L266 191M291 191L292 192L291 191M265 192L266 193L265 192M268 192L269 193L268 192M290 192L291 193L290 192M267 193L268 194L267 193M270 193L271 194L270 193M292 193L293 194L292 193z"/>
<path style="fill:#68cacb; stroke:none;" d="M268 194L269 195L268 194z"/>
<path style="fill:#65969f; stroke:none;" d="M272 194L273 195L272 194M291 194L292 195L291 194z"/>
<path style="fill:#68cacb; stroke:none;" d="M270 195L271 196L270 195z"/>
<path style="fill:#65969f; stroke:none;" d="M274 195L275 196L274 195M293 195L294 196L293 195z"/>
<path style="fill:#68cacb; stroke:none;" d="M272 196L273 197L272 196z"/>
<path style="fill:#65969f; stroke:none;" d="M273 196L274 197L273 196M277 196L278 197L277 196M292 196L293 197L292 196z"/>
<path style="fill:#68cacb; stroke:none;" d="M294 196L295 197L294 196z"/>
<path style="fill:#65969f; stroke:none;" d="M275 197L276 198L275 197M280.667 197.333L281.333 197.667L280.667 197.333M278.667 198.333L279.333 198.667L278.667 198.333M284 198L284 199L287 199L284 198M293 198L290 199L290 200L293 198M295 198L296 199L295 198z"/>
<path style="fill:#68cacb; stroke:none;" d="M53 199L54 200L53 199z"/>
<path style="fill:#65969f; stroke:none;" d="M54 199L54 200L120 200L99 199L54 199M186 199L186 200L197 200L186 199z"/>
<path style="fill:#68cacb; stroke:none;" d="M197 199L198 200L197 199z"/>
<path style="fill:#65969f; stroke:none;" d="M208 199L208 200L220 200L208 199M282.667 199.333L283.333 199.667L282.667 199.333M51 200L52 201L51 200z"/>
<path style="fill:#525669; stroke:none;" d="M74 216L74 292L92 292L92 216L120 216L120 200L75 200C68.2125 200 59.5749 198.581 53.0154 200.434C48.522 201.702 42.3255 212.442 48.3179 215.397C54.5299 218.46 67.1028 216 74 216M186 200L186 292L205 292L205 228C205 220.97 207.282 208.936 202.486 203.148C198.7 198.579 191.283 200 186 200z"/>
<path style="fill:#68cacb; stroke:none;" d="M200 200L201 201L200 200z"/>
<path style="fill:#525669; stroke:none;" d="M208 200L208 292L227 292C227 284.671 226.867 277.328 227.005 270C227.049 267.633 226.979 263.282 230.144 262.782C238.28 261.499 244.782 284.817 249.105 289.682C253.342 294.45 266.112 292 272 292L254.603 261L248.673 248L271 221C264.925 221 255.837 219.294 250.17 221.603C242.644 224.67 231.352 239.802 228 247C225.135 237.308 227.016 225.084 227 215C226.992 209.937 227.094 203.811 221.945 201.028C218.122 198.961 212.214 200 208 200z"/>
<path style="fill:#68cacb; stroke:none;" d="M222 200L223 201L222 200M286.667 200.333L287.333 200.667L286.667 200.333z"/>
<path style="fill:#65969f; stroke:none;" d="M288.667 200.333L289.333 200.667L288.667 200.333M296 200L297 201L296 200M201 201L202 202L201 201M223 201L224 202L223 201z"/>
<path style="fill:#68cacb; stroke:none;" d="M48 202L49 203L48 202z"/>
<path style="fill:#65969f; stroke:none;" d="M202 202L203 203L202 202M224 202L225 203L224 202M203 203L204 204L203 203M225 203L226 204L225 203M47 204L48 205L47 204M204.333 205.667L204.667 206.333L204.333 205.667M226.333 205.667L226.667 206.333L226.333 205.667M46 206L46 209L47 209L46 206M46 215L47 216L46 215z"/>
<path style="fill:#68cacb; stroke:none;" d="M73 216L73 292L74 292L74 240L73 216z"/>
<path style="fill:#65969f; stroke:none;" d="M92 216L92 292L93 292L93 240L92 216M143 219L143 220L146 220L143 219z"/>
<path style="fill:#525669; stroke:none;" d="M124 238C129.118 238 134.987 238.797 140 237.698C144.969 236.607 148.583 233.007 154 233.39C157.511 233.639 163.129 235.005 164.029 239.039C165.796 246.953 149.657 247.646 145 248.435C129.057 251.135 118.292 262.191 123.305 279C128.549 296.584 156.888 296.163 170 288.633C184.97 280.037 182 261.594 182 247C182 240.492 182.824 233.49 178.581 228.015C165.451 211.073 129.023 217.047 124 238z"/>
<path style="fill:#65969f; stroke:none;" d="M160 219L160 220L163 220L160 219z"/>
<path style="fill:#68cacb; stroke:none;" d="M139 220L140 221L139 220z"/>
<path style="fill:#65969f; stroke:none;" d="M140 220L141 221L140 220M166 220L167 221L166 220z"/>
<path style="fill:#68cacb; stroke:none;" d="M167 220L168 221L167 220z"/>
<path style="fill:#65969f; stroke:none;" d="M250 220L250 221L272 222C268.196 217.646 255.561 220 250 220M137 221L138 222L137 221M169 221L170 222L169 221z"/>
<path style="fill:#68cacb; stroke:none;" d="M170 221L171 222L170 221z"/>
<path style="fill:#65969f; stroke:none;" d="M135 222L136 223L135 222z"/>
<path style="fill:#68cacb; stroke:none;" d="M172 222L173 223L172 222z"/>
<path style="fill:#65969f; stroke:none;" d="M270 222L271 223L270 222M133 223L134 224L133 223M247 223L248 224L247 223M269 223L270 224L269 223M175 224L176 225L175 224M246 224L247 225L246 224M268 224L269 225L268 224z"/>
<path style="fill:#68cacb; stroke:none;" d="M130 225L131 226L130 225z"/>
<path style="fill:#65969f; stroke:none;" d="M176 225L177 226L176 225M245 225L246 226L245 225M267 225L268 226L267 225z"/>
<path style="fill:#68cacb; stroke:none;" d="M129 226L130 227L129 226z"/>
<path style="fill:#65969f; stroke:none;" d="M177 226L178 227L177 226z"/>
<path style="fill:#68cacb; stroke:none;" d="M244 226L245 227L244 226z"/>
<path style="fill:#65969f; stroke:none;" d="M178 227L179 228L178 227z"/>
<path style="fill:#68cacb; stroke:none;" d="M179 228L180 229L179 228z"/>
<path style="fill:#65969f; stroke:none;" d="M127 229L128 230L127 229z"/>
<path style="fill:#68cacb; stroke:none;" d="M126 230L127 231L126 230z"/>
<path style="fill:#65969f; stroke:none;" d="M180 230L181 231L180 230M240 231L241 232L240 231z"/>
<path style="fill:#68cacb; stroke:none;" d="M262 231L263 232L262 231z"/>
<path style="fill:#65969f; stroke:none;" d="M125 232L126 233L125 232M181.333 232.667L181.667 233.333L181.333 232.667M239 232L240 233L239 232z"/>
<path style="fill:#68cacb; stroke:none;" d="M261 232L262 233L261 232z"/>
<path style="fill:#65969f; stroke:none;" d="M150 233L150 234L156 234L150 233M238 233L239 234L238 233z"/>
<path style="fill:#68cacb; stroke:none;" d="M260 233L261 234L260 233z"/>
<path style="fill:#65969f; stroke:none;" d="M146 234L147 235L146 234z"/>
<path style="fill:#68cacb; stroke:none;" d="M147 234L148 235L147 234M158 234L159 235L158 234z"/>
<path style="fill:#65969f; stroke:none;" d="M159 234L160 235L159 234z"/>
<path style="fill:#68cacb; stroke:none;" d="M237 234L238 235L237 234z"/>
<path style="fill:#65969f; stroke:none;" d="M259 234L260 235L259 234M124 235L125 236L124 235M144 235L145 236L144 235M162 235L163 236L162 235M258 235L259 236L258 235z"/>
<path style="fill:#68cacb; stroke:none;" d="M143 236L144 237L143 236z"/>
<path style="fill:#65969f; stroke:none;" d="M163 236L164 237L163 236z"/>
<path style="fill:#68cacb; stroke:none;" d="M182 236L183 237L182 236z"/>
<path style="fill:#65969f; stroke:none;" d="M257 236L258 237L257 236M142 237L143 238L142 237M182 237L182 267L183 267L182 237M256 237L257 238L256 237M124 238L124 239L142 239L124 238M164 238L165 239L164 238M234 238L235 239L234 238M255 238L256 239L255 238z"/>
<path style="fill:#68cacb; stroke:none;" d="M164.333 239.667L164.667 240.333L164.333 239.667z"/>
<path style="fill:#65969f; stroke:none;" d="M233 239L234 240L233 239M254 239L255 240L254 239M232 240L233 241L232 240M253 240L254 241L253 240M164 241L165 242L164 241z"/>
<path style="fill:#68cacb; stroke:none;" d="M231 241L232 242L231 241M230 242L231 243L230 242z"/>
<path style="fill:#65969f; stroke:none;" d="M163 243L164 244L163 243z"/>
<path style="fill:#68cacb; stroke:none;" d="M161 244L162 245L161 244M159 245L160 246L159 245M155 246L156 247L155 246z"/>
<path style="fill:#65969f; stroke:none;" d="M156 246L157 247L156 246M227 246L228 247L227 246z"/>
<path style="fill:#68cacb; stroke:none;" d="M248 246L249 247L248 246M149 247L150 248L149 247z"/>
<path style="fill:#65969f; stroke:none;" d="M150.667 247.333L151.333 247.667L150.667 247.333z"/>
<path style="fill:#68cacb; stroke:none;" d="M247.333 247.667L247.667 248.333L247.333 247.667M142 248L143 249L142 248z"/>
<path style="fill:#65969f; stroke:none;" d="M143.667 248.333L144.333 248.667L143.667 248.333M139 249L140 250L139 249M136 250L137 251L136 250M248 250L249 251L248 250z"/>
<path style="fill:#68cacb; stroke:none;" d="M133 251L134 252L133 251z"/>
<path style="fill:#65969f; stroke:none;" d="M134 251L135 252L134 251z"/>
<path style="fill:#68cacb; stroke:none;" d="M131 252L132 253L131 252z"/>
<path style="fill:#65969f; stroke:none;" d="M249 252L250 253L249 252M130 253L131 254L130 253z"/>
<path style="fill:#68cacb; stroke:none;" d="M128 254L129 255L128 254z"/>
<path style="fill:#65969f; stroke:none;" d="M127 255L128 256L127 255z"/>
<path style="fill:#68cacb; stroke:none;" d="M251 255L252 256L251 255z"/>
<path style="fill:#65969f; stroke:none;" d="M126 256L127 257L126 256M163 256L164 257L163 256z"/>
<path style="fill:#fcfdfd; stroke:none;" d="M164 256C158.27 259.007 151.955 259.463 146.015 261.815C139.742 264.299 137.153 273.946 144.109 277.566C156.962 284.255 168.792 267.42 164 256z"/>
<path style="fill:#68cacb; stroke:none;" d="M125 257L126 258L125 257z"/>
<path style="fill:#65969f; stroke:none;" d="M161 257L162 258L161 257M252 257L253 258L252 257M157 258L158 259L157 258z"/>
<path style="fill:#68cacb; stroke:none;" d="M158 258L159 259L158 258z"/>
<path style="fill:#65969f; stroke:none;" d="M124 259L125 260L124 259M153.667 259.333L154.333 259.667L153.667 259.333M253 259L254 260L253 259M149 260L150 261L149 260z"/>
<path style="fill:#68cacb; stroke:none;" d="M150 260L151 261L150 260M254 260L255 261L254 260z"/>
<path style="fill:#65969f; stroke:none;" d="M123 261L124 262L123 261z"/>
<path style="fill:#68cacb; stroke:none;" d="M146 261L147 262L146 261z"/>
<path style="fill:#65969f; stroke:none;" d="M230.667 261.333L231.333 261.667L230.667 261.333M143 262L144 263L143 262z"/>
<path style="fill:#68cacb; stroke:none;" d="M228 262L229 263L228 262z"/>
<path style="fill:#65969f; stroke:none;" d="M255 262L256 263L255 262z"/>
<path style="fill:#68cacb; stroke:none;" d="M142 263L143 264L142 263M227 263L228 264L227 263z"/>
<path style="fill:#65969f; stroke:none;" d="M122 264L122 267L123 267L122 264M256 264L257 265L256 264M140 265L141 266L140 265M235 265L236 266L235 265z"/>
<path style="fill:#68cacb; stroke:none;" d="M164 266L165 267L164 266z"/>
<path style="fill:#65969f; stroke:none;" d="M164.333 267.667L164.667 268.333L164.333 267.667z"/>
<path style="fill:#68cacb; stroke:none;" d="M182.333 267.667L182.667 268.333L182.333 267.667M258 267L259 268L258 267z"/>
<path style="fill:#65969f; stroke:none;" d="M139 268L139 273L140 273L139 268M237 268L238 269L237 268M259 269L260 270L259 269M163 270L164 271L163 270M238 270L239 271L238 270M260 271L261 272L260 271M162 272L163 273L162 272M181.333 272.667L181.667 273.333L181.333 272.667M239 272L240 273L239 272z"/>
<path style="fill:#68cacb; stroke:none;" d="M261 272L262 273L261 272M161 273L162 274L161 273M140 274L141 275L140 274M160 274L161 275L160 274M240 274L241 275L240 274z"/>
<path style="fill:#65969f; stroke:none;" d="M262 274L263 275L262 274M122.333 275.667L122.667 276.333L122.333 275.667z"/>
<path style="fill:#68cacb; stroke:none;" d="M159 275L160 276L159 275z"/>
<path style="fill:#65969f; stroke:none;" d="M141 276L142 277L141 276M158 276L159 277L158 276M180 276L181 277L180 276z"/>
<path style="fill:#68cacb; stroke:none;" d="M241 276L242 277L241 276z"/>
<path style="fill:#65969f; stroke:none;" d="M263 276L264 277L263 276z"/>
<path style="fill:#68cacb; stroke:none;" d="M122 277L123 278L122 277z"/>
<path style="fill:#65969f; stroke:none;" d="M142 277L143 278L142 277M156 277L157 278L156 277M242 277L243 278L242 277z"/>
<path style="fill:#68cacb; stroke:none;" d="M264 277L265 278L264 277z"/>
<path style="fill:#65969f; stroke:none;" d="M144.667 278.333L145.333 278.667L144.667 278.333z"/>
<path style="fill:#68cacb; stroke:none;" d="M146 278L147 279L146 278M152 278L153 279L152 278z"/>
<path style="fill:#65969f; stroke:none;" d="M153 278L154 279L153 278M179 278L180 279L179 278M243 279L244 280L243 279M265 279L266 280L265 279M123 280L124 281L123 280M178 280L179 281L178 280M244 281L245 282L244 281M266 281L267 282L266 281M124 282L125 283L124 282z"/>
<path style="fill:#68cacb; stroke:none;" d="M176 283L177 284L176 283z"/>
<path style="fill:#65969f; stroke:none;" d="M245 283L246 284L245 283z"/>
<path style="fill:#68cacb; stroke:none;" d="M125 284L126 285L125 284z"/>
<path style="fill:#65969f; stroke:none;" d="M175 284L176 285L175 284z"/>
<path style="fill:#68cacb; stroke:none;" d="M268 284L269 285L268 284z"/>
<path style="fill:#65969f; stroke:none;" d="M126 285L127 286L126 285M174 285L175 286L174 285z"/>
<path style="fill:#68cacb; stroke:none;" d="M246 285L247 286L246 285z"/>
<path style="fill:#65969f; stroke:none;" d="M127 286L128 287L127 286z"/>
<path style="fill:#68cacb; stroke:none;" d="M173 286L174 287L173 286z"/>
<path style="fill:#65969f; stroke:none;" d="M269 286L270 287L269 286M128 287L129 288L128 287z"/>
<path style="fill:#68cacb; stroke:none;" d="M247 287L248 288L247 287M129 288L130 289L129 288z"/>
<path style="fill:#65969f; stroke:none;" d="M170 288L171 289L170 288M270 288L271 289L270 288M131 289L132 290L131 289M168 289L169 290L168 289z"/>
<path style="fill:#68cacb; stroke:none;" d="M271 289L272 290L271 289z"/>
<path style="fill:#65969f; stroke:none;" d="M133 290L134 291L133 290M166 290L167 291L166 290M249 290L250 291L249 290M135 291L136 292L135 291M162.667 291.333L163.333 291.667L162.667 291.333M272 291L273 292L272 291M138.667 292.333L139.333 292.667L138.667 292.333M157 292L157 293L160 293L157 292z"/>
<path style="fill:#68cacb; stroke:none;" d="M160 292L161 293L160 292M143 293L143 294L151 294L143 293z"/>
<path style="fill:#65969f; stroke:none;" d="M2.33333 304.667L2.66667 305.333L2.33333 304.667M316.333 304.667L316.667 305.333L316.333 304.667z"/>
<path style="fill:#fcfdfd; stroke:none;" d="M318 304L319 305L318 304z"/>
<path style="fill:#010101; stroke:none;" d="M318 305L315 317L313 319L312 319L311 316L309 319C299.877 316.303 288.489 318 279 318L218 318L77 318C56.4854 318 29.7274 313.522 10 319L8 316L7 316L8 319L5 318L0 309L0 320L144 320L319 320L318 305z"/>
<path style="fill:#fcfdfd; stroke:none;" d="M0 307L0 309L2 309L0 307z"/>
<path style="fill:#65969f; stroke:none;" d="M1 307L2 308L1 307M317 307L318 308L317 307M3 308L4 309L3 308M315 308L316 309L315 308z"/>
<path style="fill:#fcfdfd; stroke:none;" d="M317 308L318 309L317 308M0 310L1 311L0 310z"/>
<path style="fill:#68cacb; stroke:none;" d="M2 310L3 311L2 310z"/>
<path style="fill:#65969f; stroke:none;" d="M4 310L5 311L4 310M314 310L315 311L314 310z"/>
<path style="fill:#fcfdfd; stroke:none;" d="M3 312L3 314L5 314L3 312M315 312L316 313L315 312M314 313L315 314L314 313M5 314C5.18287 316.939 4.88861 318.504 8 319L5 314z"/>
<path style="fill:#65969f; stroke:none;" d="M8 314L9 315L8 314M310 314L311 315L310 314z"/>
<path style="fill:#fcfdfd; stroke:none;" d="M313 314L312 319L313 319L315 317L315 316L313 314z"/>
<path style="fill:#65969f; stroke:none;" d="M10 315L11 316L10 315M308 315L309 316L308 315z"/>
<path style="fill:#68cacb; stroke:none;" d="M8 316L9 317L8 316z"/>
<path style="fill:#65969f; stroke:none;" d="M13.6667 316.333L14.3333 316.667L13.6667 316.333z"/>
<path style="fill:#68cacb; stroke:none;" d="M15 316L15 317L304 317L278 316L219 316L15 316z"/>
<path style="fill:#65969f; stroke:none;" d="M304.667 316.333L305.333 316.667L304.667 316.333z"/>
<path style="fill:#68cacb; stroke:none;" d="M310 316L311 317L310 316z"/>
<path style="fill:#fcfdfd; stroke:none;" d="M8 317L9 318L8 317M10.3333 317.667L10.6667 318.333L10.3333 317.667z"/>
<path style="fill:#65969f; stroke:none;" d="M11 317L12 318L11 317M307 317L308 318L307 317z"/>
<path style="fill:#fcfdfd; stroke:none;" d="M308.333 317.667L308.667 318.333L308.333 317.667M16 318L16 319L19 319L16 318M3 319L4 320L3 319M8.66667 319.333L9.33333 319.667L8.66667 319.333M307 319L308 320L307 319M313.667 319.333L314.333 319.667L313.667 319.333z"/>
</svg>
